<?xml version="1.0" encoding="UTF-8"?>
<svg aria-labelledby="title" viewBox="0 0 286.8 95.4" xmlns="http://www.w3.org/2000/svg">
    <defs>
        <style>.logo-fill-2{fill:#00365a;}.logo-fill-2,.logo-fill-3,.logo-fill-4,.logo-fill-1{fill-rule:evenodd;}.logo-fill-3{fill:#0f6591;}.logo-fill-4{fill:#bdd24b;}.logo-fill-1{fill:#fec900;}</style>
    </defs>
    <title>Workaway logo</title>
    <path class="logo-fill-2" d="M2.26,57.4a.89.89,0,0,1,.88-.91H7.9a.89.89,0,0,1,.88.84c.25,5.28.46,10.86,1.87,16.25l4.48-11.23a.87.87,0,0,1,.81-.55h3.84a.85.85,0,0,1,.81.55l4.48,11.23c1.41-5.39,1.62-11,1.88-16.25a.87.87,0,0,1,.87-.84h4.52a.83.83,0,0,1,.63.27.8.8,0,0,1,.25.64C33,63.55,31.63,75.87,28.71,81a.87.87,0,0,1-.76.45H23a.88.88,0,0,1-.81-.55L17.89,70.08,13.56,80.94a.87.87,0,0,1-.81.55H7.54A.84.84,0,0,1,6.78,81C3.85,75.87,2.5,63.55,2.26,57.4Z"/>
    <path class="logo-fill-2" d="M37.83,60.22A12.45,12.45,0,1,1,34.19,69a12.4,12.4,0,0,1,3.64-8.8ZM46.63,62A5.38,5.38,0,0,0,42.49,64a8.11,8.11,0,0,0,0,10,5.17,5.17,0,0,0,8.28,0,8.15,8.15,0,0,0,0-10A5.42,5.42,0,0,0,46.63,62Z"/>
    <path class="logo-fill-2" d="M88.18,80.88a.92.92,0,0,1-.2.71.85.85,0,0,1-.67.3H82.23a.84.84,0,0,1-.86-.73,174.07,174.07,0,0,1,0-33.24.84.84,0,0,1,.86-.74h5.08a.85.85,0,0,1,.67.31.89.89,0,0,1,.2.7A133.55,133.55,0,0,0,87.07,65a52.07,52.07,0,0,0,9.35-8.2.77.77,0,0,1,.6-.27h6.27a.8.8,0,0,1,.58,1.37c-3,3.08-6.9,7-10.34,9.89a87.15,87.15,0,0,1,12.61,12.83.78.78,0,0,1,.1.85.79.79,0,0,1-.73.46H99.39a.78.78,0,0,1-.65-.33A54.43,54.43,0,0,0,87.22,70.33C87.4,73.66,87.71,77.11,88.18,80.88Z"/>
    <path class="logo-fill-3" d="M107.28,60.22a12.44,12.44,0,0,1,15.93-1.39c0-.45-.11-.9-.17-1.32a.87.87,0,0,1,.19-.71.85.85,0,0,1,.67-.31h4a.85.85,0,0,1,.86.73,113,113,0,0,1,.1,23.55.86.86,0,0,1-.87.72h-4a.89.89,0,0,1-.68-.31.92.92,0,0,1-.19-.72c.06-.42.12-.86.17-1.31a12.44,12.44,0,0,1-16-18.93ZM116.07,62A5.4,5.4,0,0,0,111.93,64a8.15,8.15,0,0,0,0,10,5.18,5.18,0,0,0,8.28,0,8.11,8.11,0,0,0,0-10A5.4,5.4,0,0,0,116.07,62Z"/>
    <path class="logo-fill-3" d="M166.72,60.22a12.46,12.46,0,0,1,15.94-1.39c-.06-.45-.12-.9-.18-1.32a.84.84,0,0,1,.2-.71.82.82,0,0,1,.67-.31h4a.85.85,0,0,1,.86.73,112.35,112.35,0,0,1,.1,23.55.85.85,0,0,1-.86.72h-4a.85.85,0,0,1-.67-.31.89.89,0,0,1-.19-.72c.05-.42.11-.86.16-1.31a12.44,12.44,0,0,1-16-18.93ZM175.51,62A5.42,5.42,0,0,0,171.37,64a8.15,8.15,0,0,0,0,10,5.18,5.18,0,0,0,8.28,0,8.11,8.11,0,0,0,0-10A5.38,5.38,0,0,0,175.51,62Z"/>
    <path class="logo-fill-3" d="M208,57.45a.84.84,0,0,1,.87-.87H214a.87.87,0,0,1,.87.79,124,124,0,0,1,.35,19.91c-.34,4.3-1.23,8.34-3.12,11.12-4.2,6.2-11.92,7.54-19.74,1.21-1.4-1.13-1.11-1.3-.65-3l.62-2.34a1,1,0,0,1,.57-.74.83.83,0,0,1,.9.19c7.44,7.15,15.59,5,15.22-6.21-1.42,2.5-4.81,4-7.52,4-10.21,0-11.27-13.34-10.35-24a.92.92,0,0,1,.88-.87h4.72a.85.85,0,0,1,.88.87c-.6,6.91-1.3,17.85,4.92,17.85C211,75.3,208.66,62.79,208,57.45Z"/>
    <path class="logo-fill-4" d="M220.28,77.36a2.06,2.06,0,1,1-2.05,2,2.05,2.05,0,0,1,2.05-2Zm17.77-5.65v2.45h0c0,2.26,0,4.51,0,6.77a.55.55,0,0,1-.54.54h-3.81a.55.55,0,0,1-.54-.54c0-6.4,0-12.8,0-19.19a.54.54,0,0,1,.54-.54h3.8a.54.54,0,0,1,.54.54v.48a8.42,8.42,0,0,1,4.07-1h0A8.36,8.36,0,0,1,248.35,64,11.23,11.23,0,0,1,251,71.71h0v9.23a.55.55,0,0,1-.54.54h-3.83a.54.54,0,0,1-.53-.54V71.71h0a6.53,6.53,0,0,0-1.35-4.46,3.53,3.53,0,0,0-2.67-1.17h0a3.53,3.53,0,0,0-2.67,1.17,6.51,6.51,0,0,0-1.34,4.46Zm36.33-5.62a5.21,5.21,0,1,0,3.67,1.52,5.18,5.18,0,0,0-3.67-1.52Zm-7.14-1.94a10.09,10.09,0,1,1-3,7.14,10,10,0,0,1,3-7.14Zm-41.65-3h3.8a.54.54,0,0,1,.54.54c0,6.39,0,12.79,0,19.19a.54.54,0,0,1-.54.54h-3.8a.54.54,0,0,1-.54-.54c0-6.4,0-12.8,0-19.19a.54.54,0,0,1,.54-.54Zm33.33,20.27a.55.55,0,0,0,.54-.54V70.26h2.7a.54.54,0,0,0,.54-.54V65.88a.54.54,0,0,0-.54-.54h-2.71v-1.7c0-2,.32-3.37,1-4.12a4.11,4.11,0,0,1,3.13-.94h1.91A.54.54,0,0,0,266,58V54.22a.54.54,0,0,0-.54-.54h-1.91c-3,0-5.2.81-6.78,2.59s-2.22,4.09-2.22,7.37v1.7h-1.4a.54.54,0,0,0-.53.54v3.84a.54.54,0,0,0,.53.54h1.41V80.93a.55.55,0,0,0,.54.54ZM227.51,53.32a2.91,2.91,0,1,1-2.91,2.91A2.91,2.91,0,0,1,227.51,53.32Z"/>
    <path class="logo-fill-2" d="M67,56.49H62.51a.85.85,0,0,0-.87.73,113,113,0,0,0-.09,23.55.85.85,0,0,0,.86.72H67a.87.87,0,0,0,.67-.31.89.89,0,0,0,.19-.72,80.93,80.93,0,0,1-.63-9.33c-.07-5,7.3-7.13,11.06-7.95a.82.82,0,0,0,.58-.84V57.63c0-.54-.56-.54-.77-.5-4.37,1-8.19,2.28-10.55,3.92.11-1.27.24-2.47.39-3.54a.87.87,0,0,0-.19-.71A.82.82,0,0,0,67,56.49Z"/>
    <path class="logo-fill-3" d="M131.17,57.4a.83.83,0,0,1,.24-.64.85.85,0,0,1,.63-.27h4.77a.87.87,0,0,1,.87.84c.26,5.28.47,10.86,1.88,16.25L144,62.35a.85.85,0,0,1,.81-.55h3.84a.87.87,0,0,1,.81.55L154,73.58c1.41-5.39,1.62-11,1.87-16.25a.89.89,0,0,1,.88-.84h4.52a.87.87,0,0,1,.87.91c-.23,6.15-1.58,18.47-4.51,23.64a.87.87,0,0,1-.76.45h-4.91a.87.87,0,0,1-.81-.55L146.8,70.08l-4.33,10.86a.88.88,0,0,1-.82.55h-5.21a.87.87,0,0,1-.76-.45C132.76,75.87,131.41,63.55,131.17,57.4Z"/>
    <path class="logo-fill-1" d="m116.47 41.71-1.47-0.17c-2.67-0.3-13-1.81-14.49-4.08-1.47-3 5.07-2 6.3-1.73a90.53 90.53 0 0 1 10.67 3.9c-0.37 0.68-0.7 1.37-1.01 2.08z"/>
    <path class="logo-fill-1" d="m125.72 29.19c-1.35-1.15-2.53-2.13-3.07-2.59-4.15-3.52-20.39-17.76-21.88-22.34-1.25-5.82 10.5 5.07 10.91 5.46 5.51 5.57 10.95 11.89 16.09 17.94-0.7 0.49-1.38 1-2.05 1.53z"/>
    <path class="logo-fill-1" d="M138.34,23.07c-1.12-2.78-3-8.09-2-9.58,1.82-2.06,3.6,2.54,3.87,3.43a44,44,0,0,1,.9,5.69c-.77.09-1.54.21-2.32.36Z"/>
    <path class="logo-fill-1" d="m153.48 22.83c1-5.21 2.23-16.53 5.13-19.77 5.77-5.26-2.41 18.68-3 20.32-0.71-0.2-1.42-0.38-2.13-0.55z"/>
    <path class="logo-fill-1" d="M139.78,27.27a29.52,29.52,0,0,0-22,22.45,28.33,28.33,0,0,1,51-4l-10.29,5.08,13.94.41a2.38,2.38,0,0,0,1.15-.07,2.3,2.3,0,0,0,1.32-1.1l7.42-10.17-8.86,3.9A29.51,29.51,0,0,0,139.78,27.27Z"/>
    <path class="logo-fill-1" d="m168.31 30.5l2.74-2c3.7-2.77 18.21-14 19.71-17.8 1.37-4.87-9.17 3.75-9.54 4.06-4.95 4.43-9.9 9.51-14.57 14.37 0.57 0.41 1.12 0.87 1.66 1.37z"/>
    <path class="logo-fill-4" d="m164.73 44.36c-9.95-8.78-25.92-7-34.5 3-1.79 2.09-4.08 3.07-5.5 2.62s-2.35-2.12-0.4-5c8.21-11.98 29.36-13.83 40.4-0.62z"/>
    <path class="logo-fill-3" d="m161.94 46.41c-6.48-3.4-13.82-1.45-18.87 2.7-4.39 3.6-10.3-0.06-3.52-4.22a19.71 19.71 0 0 1 22.39 1.52z"/>
</svg>
